<?xml version="1.0" standalone="no"?>
<!DOCTYPE svg PUBLIC "-//W3C//DTD SVG 20010904//EN" "http://www.w3.org/TR/2001/REC-SVG-20010904/DTD/svg10.dtd">
<svg version="1.0" xmlns="http://www.w3.org/2000/svg" width="500.000000pt" height="500.000000pt"
    viewBox="0 0 500.000000 500.000000" preserveAspectRatio="xMidYMid meet">

    <g transform="translate(0.000000,500.000000) scale(0.100000,-0.100000)" fill="rgba(83, 80, 80, 1)" stroke="none">
        <path d="M190 3330 l0 -242 138 4 c117 3 143 7 178 25 88 47 130 127 122 235
-6 83 -47 144 -121 182 -52 27 -68 30 -187 34 l-130 5 0 -243z m265 116 c61
-40 81 -120 47 -185 -23 -47 -73 -71 -144 -71 l-58 0 0 141 0 142 65 -5 c36
-3 76 -13 90 -22z" />
        <path d="M990 3551 c-11 -22 -180 -449 -180 -457 0 -2 25 -4 56 -4 l56 0 15
40 16 40 97 0 97 0 12 -40 12 -40 59 0 c33 0 60 1 60 3 0 1 -42 108 -94 237
l-94 235 -50 3 c-43 3 -53 0 -62 -17z m95 -214 c14 -37 25 -70 25 -72 0 -3
-27 -5 -60 -5 -33 0 -60 3 -60 8 0 22 54 152 61 145 4 -4 19 -38 34 -76z" />
        <path d="M1460 3515 l0 -55 75 0 75 0 0 -185 0 -185 55 0 55 0 0 185 0 185 75
0 75 0 0 55 0 55 -205 0 -205 0 0 -55z" />
        <path d="M2220 3551 c-11 -22 -180 -449 -180 -457 0 -2 25 -4 56 -4 l56 0 15
40 16 40 97 0 97 0 12 -40 12 -40 59 0 c33 0 60 1 60 3 0 1 -42 108 -94 237
l-94 235 -50 3 c-43 3 -53 0 -62 -17z m95 -214 c14 -37 25 -70 25 -72 0 -3
-27 -5 -60 -5 -33 0 -60 3 -60 8 0 22 54 152 61 145 4 -4 19 -38 34 -76z" />
        <path d="M2600 2905 l0 -65 620 0 620 0 0 65 0 65 -620 0 -620 0 0 -65z" />
        <path d="M1360 2570 l0 -70 620 0 621 0 -3 68 -3 67 -617 3 -618 2 0 -70z" />
        <path d="M2175 2160 c-17 -5 -44 -23 -60 -40 -26 -27 -30 -39 -30 -85 0 -73
33 -108 130 -137 90 -26 115 -42 115 -73 0 -29 -26 -45 -74 -45 -38 0 -76 28
-76 55 0 11 -12 15 -50 15 -47 0 -50 -1 -50 -26 0 -39 35 -89 78 -110 50 -25
164 -25 210 -1 63 34 90 114 58 175 -17 34 -72 65 -153 87 -34 10 -70 26 -79
36 -15 17 -16 20 0 44 13 20 25 25 56 25 39 0 80 -26 80 -50 0 -5 23 -10 50
-10 56 0 60 7 36 64 -20 48 -74 78 -149 82 -34 2 -76 -1 -92 -6z" />
        <path d="M3915 2160 c-60 -20 -95 -66 -95 -125 0 -71 34 -105 135 -136 39 -12
80 -28 93 -35 28 -18 29 -59 3 -74 -49 -26 -131 0 -131 41 0 18 -6 20 -52 17
-50 -3 -53 -4 -49 -28 6 -43 29 -77 68 -102 52 -32 170 -33 223 -3 47 27 72
78 66 130 -7 57 -55 98 -148 125 -74 22 -108 43 -108 66 0 44 93 61 130 24 11
-11 20 -24 20 -30 0 -5 23 -10 50 -10 42 0 50 3 50 19 0 24 -38 79 -71 104
-31 22 -137 32 -184 17z" />
        <path d="M2660 1930 l0 -230 155 0 155 0 0 45 0 45 -106 0 -105 0 3 48 3 47
93 3 93 3 -3 42 -3 42 -92 3 -93 3 0 44 0 45 100 0 100 0 0 45 0 45 -150 0
-150 0 0 -230z" />
        <path d="M3200 1930 l0 -230 50 0 50 0 0 136 c0 77 4 133 9 130 5 -3 51 -64
102 -136 l93 -130 43 0 43 0 0 230 0 230 -50 0 -49 0 -3 -136 -3 -137 -98 137
-98 136 -45 0 -44 0 0 -230z" />
        <path d="M4400 1930 l0 -230 155 0 155 0 0 45 0 45 -106 0 -105 0 3 48 3 47
93 3 93 3 -3 42 -3 42 -92 3 -93 3 0 44 0 45 100 0 100 0 0 45 0 45 -150 0
-150 0 0 -230z" />
    </g>
</svg>